<svg height="511pt" viewBox="1 -62 511.99999 511" width="511pt" xmlns="http://www.w3.org/2000/svg"><path d="m47.585938 203.679688h416.648437v95.503906h-416.648437zm0 0" fill="#ff633e"/><path d="m255.910156 203.679688h208.324219v95.503906h-208.324219zm0 0" fill="#e70020"/><path d="m20.765625 152.535156h470.277344v78.886719h-470.277344zm0 0" fill="#83e46f"/><path d="m255.910156 152.535156h235.132813v78.886719h-235.132813zm0 0" fill="#00c800"/><path d="m512 290.03125v41.675781c0 30.890625-25.140625 56.019531-56.019531 56.019531h-399.949219c-30.890625 0-56.0195312-25.128906-56.0195312-56.019531v-41.675781zm0 0" fill="#ffb74d"/><path d="m511.808594 142.761719v27.046875h-511.808594v-27.046875c0-78.449219 63.824219-142.261719 142.261719-142.261719h227.289062c78.4375 0 142.257813 63.8125 142.257813 142.261719zm0 0" fill="#ffb74d"/><path d="m511.808594 142.761719v27.046875h-255.898438v-169.308594h113.640625c78.4375 0 142.257813 63.8125 142.257813 142.261719zm0 0" fill="#ffaa20"/><path d="m512 290.03125v41.675781c0 30.890625-25.140625 56.019531-56.019531 56.019531h-200.070313v-97.695312zm0 0" fill="#ffaa20"/><path d="m407.972656 231.421875-152.0625 107.246094-152.074218-107.246094zm0 0" fill="#ffdb2d"/><path d="m255.910156 231.421875h152.0625l-152.0625 107.246094zm0 0" fill="#fec000"/><g fill="#e67500"><path d="m81.832031 91.101562h29.617188v29.617188h-29.617188zm0 0"/><path d="m138.742188 52.089844h29.617187v29.617187h-29.617187zm0 0"/><path d="m203.765625 91.101562h29.617187v29.617188h-29.617187zm0 0"/><path d="m246.277344 49.585938h29.621094v29.621093h-29.621094zm0 0"/></g><path d="m299.160156 81.097656h29.621094v29.617188h-29.621094zm0 0" fill="#c06100"/><path d="m356.179688 52.089844h29.621093v29.617187h-29.621093zm0 0" fill="#c06100"/><path d="m406.699219 91.101562h29.617187v29.617188h-29.617187zm0 0" fill="#c06100"/><path d="m255.910156 49.585938h19.988282v29.621093h-19.988282zm0 0" fill="#c06100"/></svg>